<mxfile host="app.diagrams.net" modified="2021-03-09T13:47:47.810Z" agent="5.0 (X11)" etag="TwfbaoAI2hpRpD3RUZYJ" version="14.4.5" type="github">
  <diagram id="0-J5RG3UYTVKZQoFmTak" name="Page-1">
    <mxGraphModel dx="2370" dy="1340" grid="1" gridSize="10" guides="1" tooltips="1" connect="1" arrows="1" fold="1" page="1" pageScale="1" pageWidth="850" pageHeight="1100" math="0" shadow="0">
      <root>
        <mxCell id="0" />
        <mxCell id="1" parent="0" />
        <mxCell id="uGrmN0lt_vAjJPZEbHZI-1" value="Role" style="shape=table;startSize=30;container=1;collapsible=1;childLayout=tableLayout;fixedRows=1;rowLines=0;fontStyle=1;align=center;resizeLast=1;" vertex="1" parent="1">
          <mxGeometry x="510" y="190" width="180" height="90" as="geometry" />
        </mxCell>
        <mxCell id="uGrmN0lt_vAjJPZEbHZI-2" value="" style="shape=partialRectangle;collapsible=0;dropTarget=0;pointerEvents=0;fillColor=none;top=0;left=0;bottom=0;right=0;points=[[0,0.5],[1,0.5]];portConstraint=eastwest;" vertex="1" parent="uGrmN0lt_vAjJPZEbHZI-1">
          <mxGeometry y="30" width="180" height="30" as="geometry" />
        </mxCell>
        <mxCell id="uGrmN0lt_vAjJPZEbHZI-3" value="" style="shape=partialRectangle;connectable=0;fillColor=none;top=0;left=0;bottom=0;right=0;editable=1;overflow=hidden;" vertex="1" parent="uGrmN0lt_vAjJPZEbHZI-2">
          <mxGeometry width="30" height="30" as="geometry" />
        </mxCell>
        <mxCell id="uGrmN0lt_vAjJPZEbHZI-4" value="usr_id int (FK)" style="shape=partialRectangle;connectable=0;fillColor=none;top=0;left=0;bottom=0;right=0;align=left;spacingLeft=6;overflow=hidden;" vertex="1" parent="uGrmN0lt_vAjJPZEbHZI-2">
          <mxGeometry x="30" width="150" height="30" as="geometry" />
        </mxCell>
        <mxCell id="uGrmN0lt_vAjJPZEbHZI-5" value="" style="shape=partialRectangle;collapsible=0;dropTarget=0;pointerEvents=0;fillColor=none;top=0;left=0;bottom=0;right=0;points=[[0,0.5],[1,0.5]];portConstraint=eastwest;" vertex="1" parent="uGrmN0lt_vAjJPZEbHZI-1">
          <mxGeometry y="60" width="180" height="30" as="geometry" />
        </mxCell>
        <mxCell id="uGrmN0lt_vAjJPZEbHZI-6" value="" style="shape=partialRectangle;connectable=0;fillColor=none;top=0;left=0;bottom=0;right=0;editable=1;overflow=hidden;" vertex="1" parent="uGrmN0lt_vAjJPZEbHZI-5">
          <mxGeometry width="30" height="30" as="geometry" />
        </mxCell>
        <mxCell id="uGrmN0lt_vAjJPZEbHZI-7" value="role varcher(30)" style="shape=partialRectangle;connectable=0;fillColor=none;top=0;left=0;bottom=0;right=0;align=left;spacingLeft=6;overflow=hidden;" vertex="1" parent="uGrmN0lt_vAjJPZEbHZI-5">
          <mxGeometry x="30" width="150" height="30" as="geometry" />
        </mxCell>
        <mxCell id="uGrmN0lt_vAjJPZEbHZI-8" value="User" style="shape=table;startSize=30;container=1;collapsible=1;childLayout=tableLayout;fixedRows=1;rowLines=0;fontStyle=1;align=center;resizeLast=1;" vertex="1" parent="1">
          <mxGeometry x="540" y="420" width="200" height="160" as="geometry" />
        </mxCell>
        <mxCell id="uGrmN0lt_vAjJPZEbHZI-9" value="" style="shape=partialRectangle;collapsible=0;dropTarget=0;pointerEvents=0;fillColor=none;top=0;left=0;bottom=1;right=0;points=[[0,0.5],[1,0.5]];portConstraint=eastwest;" vertex="1" parent="uGrmN0lt_vAjJPZEbHZI-8">
          <mxGeometry y="30" width="200" height="30" as="geometry" />
        </mxCell>
        <mxCell id="uGrmN0lt_vAjJPZEbHZI-10" value="PK" style="shape=partialRectangle;connectable=0;fillColor=none;top=0;left=0;bottom=0;right=0;fontStyle=1;overflow=hidden;" vertex="1" parent="uGrmN0lt_vAjJPZEbHZI-9">
          <mxGeometry width="30" height="30" as="geometry" />
        </mxCell>
        <mxCell id="uGrmN0lt_vAjJPZEbHZI-11" value="usr_id intÂ " style="shape=partialRectangle;connectable=0;fillColor=none;top=0;left=0;bottom=0;right=0;align=left;spacingLeft=6;fontStyle=5;overflow=hidden;" vertex="1" parent="uGrmN0lt_vAjJPZEbHZI-9">
          <mxGeometry x="30" width="170" height="30" as="geometry" />
        </mxCell>
        <mxCell id="uGrmN0lt_vAjJPZEbHZI-12" value="" style="shape=partialRectangle;collapsible=0;dropTarget=0;pointerEvents=0;fillColor=none;top=0;left=0;bottom=0;right=0;points=[[0,0.5],[1,0.5]];portConstraint=eastwest;" vertex="1" parent="uGrmN0lt_vAjJPZEbHZI-8">
          <mxGeometry y="60" width="200" height="30" as="geometry" />
        </mxCell>
        <mxCell id="uGrmN0lt_vAjJPZEbHZI-13" value="" style="shape=partialRectangle;connectable=0;fillColor=none;top=0;left=0;bottom=0;right=0;editable=1;overflow=hidden;" vertex="1" parent="uGrmN0lt_vAjJPZEbHZI-12">
          <mxGeometry width="30" height="30" as="geometry" />
        </mxCell>
        <mxCell id="uGrmN0lt_vAjJPZEbHZI-14" value="usr_name varchar (30)" style="shape=partialRectangle;connectable=0;fillColor=none;top=0;left=0;bottom=0;right=0;align=left;spacingLeft=6;overflow=hidden;" vertex="1" parent="uGrmN0lt_vAjJPZEbHZI-12">
          <mxGeometry x="30" width="170" height="30" as="geometry" />
        </mxCell>
        <mxCell id="uGrmN0lt_vAjJPZEbHZI-15" value="" style="shape=partialRectangle;collapsible=0;dropTarget=0;pointerEvents=0;fillColor=none;top=0;left=0;bottom=0;right=0;points=[[0,0.5],[1,0.5]];portConstraint=eastwest;" vertex="1" parent="uGrmN0lt_vAjJPZEbHZI-8">
          <mxGeometry y="90" width="200" height="30" as="geometry" />
        </mxCell>
        <mxCell id="uGrmN0lt_vAjJPZEbHZI-16" value="" style="shape=partialRectangle;connectable=0;fillColor=none;top=0;left=0;bottom=0;right=0;editable=1;overflow=hidden;" vertex="1" parent="uGrmN0lt_vAjJPZEbHZI-15">
          <mxGeometry width="30" height="30" as="geometry" />
        </mxCell>
        <mxCell id="uGrmN0lt_vAjJPZEbHZI-17" value="address varchar(100)" style="shape=partialRectangle;connectable=0;fillColor=none;top=0;left=0;bottom=0;right=0;align=left;spacingLeft=6;overflow=hidden;" vertex="1" parent="uGrmN0lt_vAjJPZEbHZI-15">
          <mxGeometry x="30" width="170" height="30" as="geometry" />
        </mxCell>
        <mxCell id="uGrmN0lt_vAjJPZEbHZI-18" value="" style="shape=partialRectangle;collapsible=0;dropTarget=0;pointerEvents=0;fillColor=none;top=0;left=0;bottom=0;right=0;points=[[0,0.5],[1,0.5]];portConstraint=eastwest;" vertex="1" parent="uGrmN0lt_vAjJPZEbHZI-8">
          <mxGeometry y="120" width="200" height="30" as="geometry" />
        </mxCell>
        <mxCell id="uGrmN0lt_vAjJPZEbHZI-19" value="" style="shape=partialRectangle;connectable=0;fillColor=none;top=0;left=0;bottom=0;right=0;editable=1;overflow=hidden;" vertex="1" parent="uGrmN0lt_vAjJPZEbHZI-18">
          <mxGeometry width="30" height="30" as="geometry" />
        </mxCell>
        <mxCell id="uGrmN0lt_vAjJPZEbHZI-20" value="phone_number varchar (30)" style="shape=partialRectangle;connectable=0;fillColor=none;top=0;left=0;bottom=0;right=0;align=left;spacingLeft=6;overflow=hidden;" vertex="1" parent="uGrmN0lt_vAjJPZEbHZI-18">
          <mxGeometry x="30" width="170" height="30" as="geometry" />
        </mxCell>
        <mxCell id="uGrmN0lt_vAjJPZEbHZI-21" value="Product" style="shape=table;startSize=40;container=1;collapsible=1;childLayout=tableLayout;fixedRows=1;rowLines=0;fontStyle=1;align=center;resizeLast=1;" vertex="1" parent="1">
          <mxGeometry x="140" y="360" width="280" height="390" as="geometry" />
        </mxCell>
        <mxCell id="uGrmN0lt_vAjJPZEbHZI-22" value="" style="shape=partialRectangle;collapsible=0;dropTarget=0;pointerEvents=0;fillColor=none;top=0;left=0;bottom=1;right=0;points=[[0,0.5],[1,0.5]];portConstraint=eastwest;" vertex="1" parent="uGrmN0lt_vAjJPZEbHZI-21">
          <mxGeometry y="40" width="280" height="30" as="geometry" />
        </mxCell>
        <mxCell id="uGrmN0lt_vAjJPZEbHZI-23" value="PK" style="shape=partialRectangle;connectable=0;fillColor=none;top=0;left=0;bottom=0;right=0;fontStyle=1;overflow=hidden;" vertex="1" parent="uGrmN0lt_vAjJPZEbHZI-22">
          <mxGeometry width="30" height="30" as="geometry" />
        </mxCell>
        <mxCell id="uGrmN0lt_vAjJPZEbHZI-24" value="product_id int (4) NOT NULL" style="shape=partialRectangle;connectable=0;fillColor=none;top=0;left=0;bottom=0;right=0;align=left;spacingLeft=6;fontStyle=5;overflow=hidden;" vertex="1" parent="uGrmN0lt_vAjJPZEbHZI-22">
          <mxGeometry x="30" width="250" height="30" as="geometry" />
        </mxCell>
        <mxCell id="uGrmN0lt_vAjJPZEbHZI-25" value="" style="shape=partialRectangle;collapsible=0;dropTarget=0;pointerEvents=0;fillColor=none;top=0;left=0;bottom=0;right=0;points=[[0,0.5],[1,0.5]];portConstraint=eastwest;" vertex="1" parent="uGrmN0lt_vAjJPZEbHZI-21">
          <mxGeometry y="70" width="280" height="30" as="geometry" />
        </mxCell>
        <mxCell id="uGrmN0lt_vAjJPZEbHZI-26" value="" style="shape=partialRectangle;connectable=0;fillColor=none;top=0;left=0;bottom=0;right=0;editable=1;overflow=hidden;" vertex="1" parent="uGrmN0lt_vAjJPZEbHZI-25">
          <mxGeometry width="30" height="30" as="geometry" />
        </mxCell>
        <mxCell id="uGrmN0lt_vAjJPZEbHZI-27" value="product_name varchar (50)" style="shape=partialRectangle;connectable=0;fillColor=none;top=0;left=0;bottom=0;right=0;align=left;spacingLeft=6;overflow=hidden;" vertex="1" parent="uGrmN0lt_vAjJPZEbHZI-25">
          <mxGeometry x="30" width="250" height="30" as="geometry" />
        </mxCell>
        <mxCell id="uGrmN0lt_vAjJPZEbHZI-28" value="" style="shape=partialRectangle;collapsible=0;dropTarget=0;pointerEvents=0;fillColor=none;top=0;left=0;bottom=0;right=0;points=[[0,0.5],[1,0.5]];portConstraint=eastwest;" vertex="1" parent="uGrmN0lt_vAjJPZEbHZI-21">
          <mxGeometry y="100" width="280" height="30" as="geometry" />
        </mxCell>
        <mxCell id="uGrmN0lt_vAjJPZEbHZI-29" value="" style="shape=partialRectangle;connectable=0;fillColor=none;top=0;left=0;bottom=0;right=0;editable=1;overflow=hidden;" vertex="1" parent="uGrmN0lt_vAjJPZEbHZI-28">
          <mxGeometry width="30" height="30" as="geometry" />
        </mxCell>
        <mxCell id="uGrmN0lt_vAjJPZEbHZI-30" value="price Double" style="shape=partialRectangle;connectable=0;fillColor=none;top=0;left=0;bottom=0;right=0;align=left;spacingLeft=6;overflow=hidden;" vertex="1" parent="uGrmN0lt_vAjJPZEbHZI-28">
          <mxGeometry x="30" width="250" height="30" as="geometry" />
        </mxCell>
        <mxCell id="uGrmN0lt_vAjJPZEbHZI-31" value="" style="shape=partialRectangle;collapsible=0;dropTarget=0;pointerEvents=0;fillColor=none;top=0;left=0;bottom=0;right=0;points=[[0,0.5],[1,0.5]];portConstraint=eastwest;" vertex="1" parent="uGrmN0lt_vAjJPZEbHZI-21">
          <mxGeometry y="130" width="280" height="30" as="geometry" />
        </mxCell>
        <mxCell id="uGrmN0lt_vAjJPZEbHZI-32" value="" style="shape=partialRectangle;connectable=0;fillColor=none;top=0;left=0;bottom=0;right=0;editable=1;overflow=hidden;" vertex="1" parent="uGrmN0lt_vAjJPZEbHZI-31">
          <mxGeometry width="30" height="30" as="geometry" />
        </mxCell>
        <mxCell id="uGrmN0lt_vAjJPZEbHZI-33" value="quantity int(4)" style="shape=partialRectangle;connectable=0;fillColor=none;top=0;left=0;bottom=0;right=0;align=left;spacingLeft=6;overflow=hidden;" vertex="1" parent="uGrmN0lt_vAjJPZEbHZI-31">
          <mxGeometry x="30" width="250" height="30" as="geometry" />
        </mxCell>
        <mxCell id="uGrmN0lt_vAjJPZEbHZI-34" value="" style="shape=partialRectangle;collapsible=0;dropTarget=0;pointerEvents=0;fillColor=none;top=0;left=0;bottom=0;right=0;points=[[0,0.5],[1,0.5]];portConstraint=eastwest;" vertex="1" parent="1">
          <mxGeometry x="140" y="515" width="200" height="30" as="geometry" />
        </mxCell>
        <mxCell id="uGrmN0lt_vAjJPZEbHZI-35" value="" style="shape=partialRectangle;connectable=0;fillColor=none;top=0;left=0;bottom=0;right=0;editable=1;overflow=hidden;" vertex="1" parent="uGrmN0lt_vAjJPZEbHZI-34">
          <mxGeometry width="30" height="30" as="geometry" />
        </mxCell>
        <mxCell id="uGrmN0lt_vAjJPZEbHZI-36" value="category varchar (16)" style="shape=partialRectangle;connectable=0;fillColor=none;top=0;left=0;bottom=0;right=0;align=left;spacingLeft=6;overflow=hidden;" vertex="1" parent="uGrmN0lt_vAjJPZEbHZI-34">
          <mxGeometry x="30" width="170" height="30" as="geometry" />
        </mxCell>
        <mxCell id="uGrmN0lt_vAjJPZEbHZI-37" value="" style="shape=partialRectangle;collapsible=0;dropTarget=0;pointerEvents=0;fillColor=none;top=0;left=0;bottom=0;right=0;points=[[0,0.5],[1,0.5]];portConstraint=eastwest;" vertex="1" parent="1">
          <mxGeometry x="130" y="660" width="270" height="30" as="geometry" />
        </mxCell>
        <mxCell id="uGrmN0lt_vAjJPZEbHZI-38" value="" style="shape=partialRectangle;connectable=0;fillColor=none;top=0;left=0;bottom=0;right=0;editable=1;overflow=hidden;" vertex="1" parent="uGrmN0lt_vAjJPZEbHZI-37">
          <mxGeometry width="40.5" height="30" as="geometry" />
        </mxCell>
        <mxCell id="uGrmN0lt_vAjJPZEbHZI-39" value="import_date DateTime NOT NULL" style="shape=partialRectangle;connectable=0;fillColor=none;top=0;left=0;bottom=0;right=0;align=left;spacingLeft=6;overflow=hidden;" vertex="1" parent="uGrmN0lt_vAjJPZEbHZI-37">
          <mxGeometry x="40.5" width="229.50000000000003" height="30" as="geometry" />
        </mxCell>
        <mxCell id="uGrmN0lt_vAjJPZEbHZI-40" value="" style="shape=partialRectangle;collapsible=0;dropTarget=0;pointerEvents=0;fillColor=none;top=0;left=0;bottom=0;right=0;points=[[0,0.5],[1,0.5]];portConstraint=eastwest;" vertex="1" parent="1">
          <mxGeometry x="140" y="720" width="200" height="30" as="geometry" />
        </mxCell>
        <mxCell id="uGrmN0lt_vAjJPZEbHZI-41" value="" style="shape=partialRectangle;connectable=0;fillColor=none;top=0;left=0;bottom=0;right=0;editable=1;overflow=hidden;" vertex="1" parent="uGrmN0lt_vAjJPZEbHZI-40">
          <mxGeometry width="30" height="30" as="geometry" />
        </mxCell>
        <mxCell id="uGrmN0lt_vAjJPZEbHZI-42" value="expire_date Date" style="shape=partialRectangle;connectable=0;fillColor=none;top=0;left=0;bottom=0;right=0;align=left;spacingLeft=6;overflow=hidden;" vertex="1" parent="uGrmN0lt_vAjJPZEbHZI-40">
          <mxGeometry x="30" width="170" height="30" as="geometry" />
        </mxCell>
        <mxCell id="uGrmN0lt_vAjJPZEbHZI-43" value="" style="shape=partialRectangle;collapsible=0;dropTarget=0;pointerEvents=0;fillColor=none;top=0;left=0;bottom=0;right=0;points=[[0,0.5],[1,0.5]];portConstraint=eastwest;" vertex="1" parent="1">
          <mxGeometry x="140" y="665" width="200" height="30" as="geometry" />
        </mxCell>
        <mxCell id="uGrmN0lt_vAjJPZEbHZI-44" value="" style="shape=partialRectangle;connectable=0;fillColor=none;top=0;left=0;bottom=0;right=0;editable=1;overflow=hidden;" vertex="1" parent="uGrmN0lt_vAjJPZEbHZI-43">
          <mxGeometry width="30" height="30" as="geometry" />
        </mxCell>
        <mxCell id="uGrmN0lt_vAjJPZEbHZI-45" value="Order" style="shape=table;startSize=30;container=1;collapsible=1;childLayout=tableLayout;fixedRows=1;rowLines=0;fontStyle=1;align=center;resizeLast=1;" vertex="1" parent="1">
          <mxGeometry x="570" y="800" width="190" height="270" as="geometry" />
        </mxCell>
        <mxCell id="uGrmN0lt_vAjJPZEbHZI-46" value="" style="shape=partialRectangle;collapsible=0;dropTarget=0;pointerEvents=0;fillColor=none;top=0;left=0;bottom=1;right=0;points=[[0,0.5],[1,0.5]];portConstraint=eastwest;" vertex="1" parent="uGrmN0lt_vAjJPZEbHZI-45">
          <mxGeometry y="30" width="190" height="30" as="geometry" />
        </mxCell>
        <mxCell id="uGrmN0lt_vAjJPZEbHZI-47" value="PK" style="shape=partialRectangle;connectable=0;fillColor=none;top=0;left=0;bottom=0;right=0;fontStyle=1;overflow=hidden;" vertex="1" parent="uGrmN0lt_vAjJPZEbHZI-46">
          <mxGeometry width="30" height="30" as="geometry" />
        </mxCell>
        <mxCell id="uGrmN0lt_vAjJPZEbHZI-48" value="id int (PK)" style="shape=partialRectangle;connectable=0;fillColor=none;top=0;left=0;bottom=0;right=0;align=left;spacingLeft=6;fontStyle=5;overflow=hidden;" vertex="1" parent="uGrmN0lt_vAjJPZEbHZI-46">
          <mxGeometry x="30" width="160" height="30" as="geometry" />
        </mxCell>
        <mxCell id="uGrmN0lt_vAjJPZEbHZI-49" value="" style="shape=partialRectangle;collapsible=0;dropTarget=0;pointerEvents=0;fillColor=none;top=0;left=0;bottom=0;right=0;points=[[0,0.5],[1,0.5]];portConstraint=eastwest;" vertex="1" parent="uGrmN0lt_vAjJPZEbHZI-45">
          <mxGeometry y="60" width="190" height="30" as="geometry" />
        </mxCell>
        <mxCell id="uGrmN0lt_vAjJPZEbHZI-50" value="" style="shape=partialRectangle;connectable=0;fillColor=none;top=0;left=0;bottom=0;right=0;editable=1;overflow=hidden;" vertex="1" parent="uGrmN0lt_vAjJPZEbHZI-49">
          <mxGeometry width="30" height="30" as="geometry" />
        </mxCell>
        <mxCell id="uGrmN0lt_vAjJPZEbHZI-51" value="usr_id (FK)" style="shape=partialRectangle;connectable=0;fillColor=none;top=0;left=0;bottom=0;right=0;align=left;spacingLeft=6;overflow=hidden;" vertex="1" parent="uGrmN0lt_vAjJPZEbHZI-49">
          <mxGeometry x="30" width="160" height="30" as="geometry" />
        </mxCell>
        <mxCell id="uGrmN0lt_vAjJPZEbHZI-52" value="" style="shape=partialRectangle;collapsible=0;dropTarget=0;pointerEvents=0;fillColor=none;top=0;left=0;bottom=0;right=0;points=[[0,0.5],[1,0.5]];portConstraint=eastwest;" vertex="1" parent="uGrmN0lt_vAjJPZEbHZI-45">
          <mxGeometry y="90" width="190" height="30" as="geometry" />
        </mxCell>
        <mxCell id="uGrmN0lt_vAjJPZEbHZI-53" value="" style="shape=partialRectangle;connectable=0;fillColor=none;top=0;left=0;bottom=0;right=0;editable=1;overflow=hidden;" vertex="1" parent="uGrmN0lt_vAjJPZEbHZI-52">
          <mxGeometry width="30" height="30" as="geometry" />
        </mxCell>
        <mxCell id="uGrmN0lt_vAjJPZEbHZI-54" value="delivery_notes Text" style="shape=partialRectangle;connectable=0;fillColor=none;top=0;left=0;bottom=0;right=0;align=left;spacingLeft=6;overflow=hidden;" vertex="1" parent="uGrmN0lt_vAjJPZEbHZI-52">
          <mxGeometry x="30" width="160" height="30" as="geometry" />
        </mxCell>
        <mxCell id="uGrmN0lt_vAjJPZEbHZI-55" value="" style="shape=partialRectangle;collapsible=0;dropTarget=0;pointerEvents=0;fillColor=none;top=0;left=0;bottom=0;right=0;points=[[0,0.5],[1,0.5]];portConstraint=eastwest;" vertex="1" parent="uGrmN0lt_vAjJPZEbHZI-45">
          <mxGeometry y="120" width="190" height="30" as="geometry" />
        </mxCell>
        <mxCell id="uGrmN0lt_vAjJPZEbHZI-56" value="" style="shape=partialRectangle;connectable=0;fillColor=none;top=0;left=0;bottom=0;right=0;editable=1;overflow=hidden;" vertex="1" parent="uGrmN0lt_vAjJPZEbHZI-55">
          <mxGeometry width="30" height="30" as="geometry" />
        </mxCell>
        <mxCell id="uGrmN0lt_vAjJPZEbHZI-57" value="delivery_time varchar(30)" style="shape=partialRectangle;connectable=0;fillColor=none;top=0;left=0;bottom=0;right=0;align=left;spacingLeft=6;overflow=hidden;" vertex="1" parent="uGrmN0lt_vAjJPZEbHZI-55">
          <mxGeometry x="30" width="160" height="30" as="geometry" />
        </mxCell>
        <mxCell id="uGrmN0lt_vAjJPZEbHZI-58" value="" style="shape=partialRectangle;collapsible=0;dropTarget=0;pointerEvents=0;fillColor=none;top=0;left=0;bottom=0;right=0;points=[[0,0.5],[1,0.5]];portConstraint=eastwest;" vertex="1" parent="1">
          <mxGeometry x="570" y="980" width="190" height="30" as="geometry" />
        </mxCell>
        <mxCell id="uGrmN0lt_vAjJPZEbHZI-59" value="" style="shape=partialRectangle;connectable=0;fillColor=none;top=0;left=0;bottom=0;right=0;editable=1;overflow=hidden;" vertex="1" parent="uGrmN0lt_vAjJPZEbHZI-58">
          <mxGeometry width="30" height="30" as="geometry" />
        </mxCell>
        <mxCell id="uGrmN0lt_vAjJPZEbHZI-60" value="created Date" style="shape=partialRectangle;connectable=0;fillColor=none;top=0;left=0;bottom=0;right=0;align=left;spacingLeft=6;overflow=hidden;" vertex="1" parent="uGrmN0lt_vAjJPZEbHZI-58">
          <mxGeometry x="30" width="160" height="30" as="geometry" />
        </mxCell>
        <mxCell id="uGrmN0lt_vAjJPZEbHZI-61" value="Cart" style="shape=table;startSize=30;container=1;collapsible=1;childLayout=tableLayout;fixedRows=1;rowLines=0;fontStyle=1;align=center;resizeLast=1;" vertex="1" parent="1">
          <mxGeometry x="810" y="130" width="180" height="160" as="geometry" />
        </mxCell>
        <mxCell id="uGrmN0lt_vAjJPZEbHZI-62" value="" style="shape=partialRectangle;collapsible=0;dropTarget=0;pointerEvents=0;fillColor=none;top=0;left=0;bottom=1;right=0;points=[[0,0.5],[1,0.5]];portConstraint=eastwest;" vertex="1" parent="uGrmN0lt_vAjJPZEbHZI-61">
          <mxGeometry y="30" width="180" height="30" as="geometry" />
        </mxCell>
        <mxCell id="uGrmN0lt_vAjJPZEbHZI-63" value="PK" style="shape=partialRectangle;connectable=0;fillColor=none;top=0;left=0;bottom=0;right=0;fontStyle=1;overflow=hidden;" vertex="1" parent="uGrmN0lt_vAjJPZEbHZI-62">
          <mxGeometry width="30" height="30" as="geometry" />
        </mxCell>
        <mxCell id="uGrmN0lt_vAjJPZEbHZI-64" value="id int NotNull" style="shape=partialRectangle;connectable=0;fillColor=none;top=0;left=0;bottom=0;right=0;align=left;spacingLeft=6;fontStyle=5;overflow=hidden;" vertex="1" parent="uGrmN0lt_vAjJPZEbHZI-62">
          <mxGeometry x="30" width="150" height="30" as="geometry" />
        </mxCell>
        <mxCell id="uGrmN0lt_vAjJPZEbHZI-65" value="" style="shape=partialRectangle;collapsible=0;dropTarget=0;pointerEvents=0;fillColor=none;top=0;left=0;bottom=0;right=0;points=[[0,0.5],[1,0.5]];portConstraint=eastwest;" vertex="1" parent="uGrmN0lt_vAjJPZEbHZI-61">
          <mxGeometry y="60" width="180" height="30" as="geometry" />
        </mxCell>
        <mxCell id="uGrmN0lt_vAjJPZEbHZI-66" value="" style="shape=partialRectangle;connectable=0;fillColor=none;top=0;left=0;bottom=0;right=0;editable=1;overflow=hidden;" vertex="1" parent="uGrmN0lt_vAjJPZEbHZI-65">
          <mxGeometry width="30" height="30" as="geometry" />
        </mxCell>
        <mxCell id="uGrmN0lt_vAjJPZEbHZI-67" value="usr_id int (FK)" style="shape=partialRectangle;connectable=0;fillColor=none;top=0;left=0;bottom=0;right=0;align=left;spacingLeft=6;overflow=hidden;" vertex="1" parent="uGrmN0lt_vAjJPZEbHZI-65">
          <mxGeometry x="30" width="150" height="30" as="geometry" />
        </mxCell>
        <mxCell id="uGrmN0lt_vAjJPZEbHZI-68" value="" style="shape=partialRectangle;collapsible=0;dropTarget=0;pointerEvents=0;fillColor=none;top=0;left=0;bottom=0;right=0;points=[[0,0.5],[1,0.5]];portConstraint=eastwest;" vertex="1" parent="uGrmN0lt_vAjJPZEbHZI-61">
          <mxGeometry y="90" width="180" height="30" as="geometry" />
        </mxCell>
        <mxCell id="uGrmN0lt_vAjJPZEbHZI-69" value="" style="shape=partialRectangle;connectable=0;fillColor=none;top=0;left=0;bottom=0;right=0;editable=1;overflow=hidden;" vertex="1" parent="uGrmN0lt_vAjJPZEbHZI-68">
          <mxGeometry width="30" height="30" as="geometry" />
        </mxCell>
        <mxCell id="uGrmN0lt_vAjJPZEbHZI-70" value="content Text" style="shape=partialRectangle;connectable=0;fillColor=none;top=0;left=0;bottom=0;right=0;align=left;spacingLeft=6;overflow=hidden;" vertex="1" parent="uGrmN0lt_vAjJPZEbHZI-68">
          <mxGeometry x="30" width="150" height="30" as="geometry" />
        </mxCell>
        <mxCell id="uGrmN0lt_vAjJPZEbHZI-71" value="" style="shape=partialRectangle;collapsible=0;dropTarget=0;pointerEvents=0;fillColor=none;top=0;left=0;bottom=0;right=0;points=[[0,0.5],[1,0.5]];portConstraint=eastwest;" vertex="1" parent="uGrmN0lt_vAjJPZEbHZI-61">
          <mxGeometry y="120" width="180" height="30" as="geometry" />
        </mxCell>
        <mxCell id="uGrmN0lt_vAjJPZEbHZI-72" value="" style="shape=partialRectangle;connectable=0;fillColor=none;top=0;left=0;bottom=0;right=0;editable=1;overflow=hidden;" vertex="1" parent="uGrmN0lt_vAjJPZEbHZI-71">
          <mxGeometry width="30" height="30" as="geometry" />
        </mxCell>
        <mxCell id="uGrmN0lt_vAjJPZEbHZI-73" value="updateAt Date" style="shape=partialRectangle;connectable=0;fillColor=none;top=0;left=0;bottom=0;right=0;align=left;spacingLeft=6;overflow=hidden;" vertex="1" parent="uGrmN0lt_vAjJPZEbHZI-71">
          <mxGeometry x="30" width="150" height="30" as="geometry" />
        </mxCell>
        <mxCell id="uGrmN0lt_vAjJPZEbHZI-74" value="Cart_Item" style="shape=table;startSize=30;container=1;collapsible=1;childLayout=tableLayout;fixedRows=1;rowLines=0;fontStyle=1;align=center;resizeLast=1;" vertex="1" parent="1">
          <mxGeometry x="910" y="512.5" width="180" height="217.5" as="geometry" />
        </mxCell>
        <mxCell id="uGrmN0lt_vAjJPZEbHZI-75" value="" style="shape=partialRectangle;collapsible=0;dropTarget=0;pointerEvents=0;fillColor=none;top=0;left=0;bottom=1;right=0;points=[[0,0.5],[1,0.5]];portConstraint=eastwest;" vertex="1" parent="uGrmN0lt_vAjJPZEbHZI-74">
          <mxGeometry y="30" width="180" height="30" as="geometry" />
        </mxCell>
        <mxCell id="uGrmN0lt_vAjJPZEbHZI-76" value="PK" style="shape=partialRectangle;connectable=0;fillColor=none;top=0;left=0;bottom=0;right=0;fontStyle=1;overflow=hidden;" vertex="1" parent="uGrmN0lt_vAjJPZEbHZI-75">
          <mxGeometry width="30" height="30" as="geometry" />
        </mxCell>
        <mxCell id="uGrmN0lt_vAjJPZEbHZI-77" value="id int NotNull" style="shape=partialRectangle;connectable=0;fillColor=none;top=0;left=0;bottom=0;right=0;align=left;spacingLeft=6;fontStyle=5;overflow=hidden;" vertex="1" parent="uGrmN0lt_vAjJPZEbHZI-75">
          <mxGeometry x="30" width="150" height="30" as="geometry" />
        </mxCell>
        <mxCell id="uGrmN0lt_vAjJPZEbHZI-78" value="" style="shape=partialRectangle;collapsible=0;dropTarget=0;pointerEvents=0;fillColor=none;top=0;left=0;bottom=0;right=0;points=[[0,0.5],[1,0.5]];portConstraint=eastwest;" vertex="1" parent="uGrmN0lt_vAjJPZEbHZI-74">
          <mxGeometry y="60" width="180" height="30" as="geometry" />
        </mxCell>
        <mxCell id="uGrmN0lt_vAjJPZEbHZI-79" value="" style="shape=partialRectangle;connectable=0;fillColor=none;top=0;left=0;bottom=0;right=0;editable=1;overflow=hidden;" vertex="1" parent="uGrmN0lt_vAjJPZEbHZI-78">
          <mxGeometry width="30" height="30" as="geometry" />
        </mxCell>
        <mxCell id="uGrmN0lt_vAjJPZEbHZI-80" value="product_id int (FK)" style="shape=partialRectangle;connectable=0;fillColor=none;top=0;left=0;bottom=0;right=0;align=left;spacingLeft=6;overflow=hidden;" vertex="1" parent="uGrmN0lt_vAjJPZEbHZI-78">
          <mxGeometry x="30" width="150" height="30" as="geometry" />
        </mxCell>
        <mxCell id="uGrmN0lt_vAjJPZEbHZI-81" value="" style="shape=partialRectangle;collapsible=0;dropTarget=0;pointerEvents=0;fillColor=none;top=0;left=0;bottom=0;right=0;points=[[0,0.5],[1,0.5]];portConstraint=eastwest;" vertex="1" parent="uGrmN0lt_vAjJPZEbHZI-74">
          <mxGeometry y="90" width="180" height="30" as="geometry" />
        </mxCell>
        <mxCell id="uGrmN0lt_vAjJPZEbHZI-82" value="" style="shape=partialRectangle;connectable=0;fillColor=none;top=0;left=0;bottom=0;right=0;editable=1;overflow=hidden;" vertex="1" parent="uGrmN0lt_vAjJPZEbHZI-81">
          <mxGeometry width="30" height="30" as="geometry" />
        </mxCell>
        <mxCell id="uGrmN0lt_vAjJPZEbHZI-83" value="cart_id int (FK)" style="shape=partialRectangle;connectable=0;fillColor=none;top=0;left=0;bottom=0;right=0;align=left;spacingLeft=6;overflow=hidden;" vertex="1" parent="uGrmN0lt_vAjJPZEbHZI-81">
          <mxGeometry x="30" width="150" height="30" as="geometry" />
        </mxCell>
        <mxCell id="uGrmN0lt_vAjJPZEbHZI-84" value="" style="shape=partialRectangle;collapsible=0;dropTarget=0;pointerEvents=0;fillColor=none;top=0;left=0;bottom=0;right=0;points=[[0,0.5],[1,0.5]];portConstraint=eastwest;" vertex="1" parent="1">
          <mxGeometry x="570" y="1010" width="190" height="30" as="geometry" />
        </mxCell>
        <mxCell id="uGrmN0lt_vAjJPZEbHZI-85" value="" style="shape=partialRectangle;connectable=0;fillColor=none;top=0;left=0;bottom=0;right=0;editable=1;overflow=hidden;" vertex="1" parent="uGrmN0lt_vAjJPZEbHZI-84">
          <mxGeometry width="30" height="30" as="geometry" />
        </mxCell>
        <mxCell id="uGrmN0lt_vAjJPZEbHZI-86" value="status varchar(20)" style="shape=partialRectangle;connectable=0;fillColor=none;top=0;left=0;bottom=0;right=0;align=left;spacingLeft=6;overflow=hidden;" vertex="1" parent="uGrmN0lt_vAjJPZEbHZI-84">
          <mxGeometry x="30" width="160" height="30" as="geometry" />
        </mxCell>
        <mxCell id="uGrmN0lt_vAjJPZEbHZI-87" value="" style="shape=partialRectangle;collapsible=0;dropTarget=0;pointerEvents=0;fillColor=none;top=0;left=0;bottom=0;right=0;points=[[0,0.5],[1,0.5]];portConstraint=eastwest;" vertex="1" parent="1">
          <mxGeometry x="910" y="630" width="180" height="30" as="geometry" />
        </mxCell>
        <mxCell id="uGrmN0lt_vAjJPZEbHZI-88" value="" style="shape=partialRectangle;connectable=0;fillColor=none;top=0;left=0;bottom=0;right=0;editable=1;overflow=hidden;" vertex="1" parent="uGrmN0lt_vAjJPZEbHZI-87">
          <mxGeometry width="30" height="30" as="geometry" />
        </mxCell>
        <mxCell id="uGrmN0lt_vAjJPZEbHZI-89" value="quantity int" style="shape=partialRectangle;connectable=0;fillColor=none;top=0;left=0;bottom=0;right=0;align=left;spacingLeft=6;overflow=hidden;" vertex="1" parent="uGrmN0lt_vAjJPZEbHZI-87">
          <mxGeometry x="30" width="150" height="30" as="geometry" />
        </mxCell>
        <mxCell id="uGrmN0lt_vAjJPZEbHZI-90" value="" style="shape=partialRectangle;collapsible=0;dropTarget=0;pointerEvents=0;fillColor=none;top=0;left=0;bottom=0;right=0;points=[[0,0.5],[1,0.5]];portConstraint=eastwest;" vertex="1" parent="1">
          <mxGeometry x="910" y="660" width="180" height="30" as="geometry" />
        </mxCell>
        <mxCell id="uGrmN0lt_vAjJPZEbHZI-91" value="" style="shape=partialRectangle;connectable=0;fillColor=none;top=0;left=0;bottom=0;right=0;editable=1;overflow=hidden;" vertex="1" parent="uGrmN0lt_vAjJPZEbHZI-90">
          <mxGeometry width="30" height="30" as="geometry" />
        </mxCell>
        <mxCell id="uGrmN0lt_vAjJPZEbHZI-92" value="createdAt Date" style="shape=partialRectangle;connectable=0;fillColor=none;top=0;left=0;bottom=0;right=0;align=left;spacingLeft=6;overflow=hidden;" vertex="1" parent="uGrmN0lt_vAjJPZEbHZI-90">
          <mxGeometry x="30" width="150" height="30" as="geometry" />
        </mxCell>
        <mxCell id="uGrmN0lt_vAjJPZEbHZI-93" value="" style="shape=partialRectangle;collapsible=0;dropTarget=0;pointerEvents=0;fillColor=none;top=0;left=0;bottom=0;right=0;points=[[0,0.5],[1,0.5]];portConstraint=eastwest;" vertex="1" parent="1">
          <mxGeometry x="910" y="690" width="180" height="30" as="geometry" />
        </mxCell>
        <mxCell id="uGrmN0lt_vAjJPZEbHZI-94" value="" style="shape=partialRectangle;connectable=0;fillColor=none;top=0;left=0;bottom=0;right=0;editable=1;overflow=hidden;" vertex="1" parent="uGrmN0lt_vAjJPZEbHZI-93">
          <mxGeometry width="30" height="30" as="geometry" />
        </mxCell>
        <mxCell id="uGrmN0lt_vAjJPZEbHZI-95" value="updatedAt Date" style="shape=partialRectangle;connectable=0;fillColor=none;top=0;left=0;bottom=0;right=0;align=left;spacingLeft=6;overflow=hidden;" vertex="1" parent="uGrmN0lt_vAjJPZEbHZI-93">
          <mxGeometry x="30" width="150" height="30" as="geometry" />
        </mxCell>
        <mxCell id="uGrmN0lt_vAjJPZEbHZI-96" value="" style="shape=partialRectangle;collapsible=0;dropTarget=0;pointerEvents=0;fillColor=none;top=0;left=0;bottom=0;right=0;points=[[0,0.5],[1,0.5]];portConstraint=eastwest;" vertex="1" parent="1">
          <mxGeometry x="570" y="950" width="190" height="30" as="geometry" />
        </mxCell>
        <mxCell id="uGrmN0lt_vAjJPZEbHZI-97" value="" style="shape=partialRectangle;connectable=0;fillColor=none;top=0;left=0;bottom=0;right=0;editable=1;overflow=hidden;" vertex="1" parent="uGrmN0lt_vAjJPZEbHZI-96">
          <mxGeometry width="30" height="30" as="geometry" />
        </mxCell>
        <mxCell id="uGrmN0lt_vAjJPZEbHZI-98" value="billing_address varchar(255)" style="shape=partialRectangle;connectable=0;fillColor=none;top=0;left=0;bottom=0;right=0;align=left;spacingLeft=6;overflow=hidden;" vertex="1" parent="uGrmN0lt_vAjJPZEbHZI-96">
          <mxGeometry x="30" width="160" height="30" as="geometry" />
        </mxCell>
        <mxCell id="uGrmN0lt_vAjJPZEbHZI-99" value="" style="fontSize=12;html=1;endArrow=ERoneToMany;startArrow=ERmandOne;exitX=0.3;exitY=0;exitDx=0;exitDy=0;exitPerimeter=0;" edge="1" parent="1" source="uGrmN0lt_vAjJPZEbHZI-8" target="uGrmN0lt_vAjJPZEbHZI-1">
          <mxGeometry width="100" height="100" relative="1" as="geometry">
            <mxPoint x="780" y="490" as="sourcePoint" />
            <mxPoint x="880" y="390" as="targetPoint" />
          </mxGeometry>
        </mxCell>
        <mxCell id="uGrmN0lt_vAjJPZEbHZI-100" value="" style="edgeStyle=entityRelationEdgeStyle;fontSize=12;html=1;endArrow=ERzeroToMany;startArrow=ERmandOne;exitX=1.018;exitY=1.006;exitDx=0;exitDy=0;exitPerimeter=0;" edge="1" parent="1" source="uGrmN0lt_vAjJPZEbHZI-18" target="uGrmN0lt_vAjJPZEbHZI-45">
          <mxGeometry width="100" height="100" relative="1" as="geometry">
            <mxPoint x="763" y="800" as="sourcePoint" />
            <mxPoint x="530" y="440" as="targetPoint" />
          </mxGeometry>
        </mxCell>
        <mxCell id="uGrmN0lt_vAjJPZEbHZI-101" value="" style="edgeStyle=entityRelationEdgeStyle;fontSize=12;html=1;endArrow=ERmandOne;startArrow=ERmandOne;exitX=1.01;exitY=0.09;exitDx=0;exitDy=0;exitPerimeter=0;entryX=-0.012;entryY=0.105;entryDx=0;entryDy=0;entryPerimeter=0;" edge="1" parent="1" source="uGrmN0lt_vAjJPZEbHZI-8" target="uGrmN0lt_vAjJPZEbHZI-61">
          <mxGeometry width="100" height="100" relative="1" as="geometry">
            <mxPoint x="590" y="480" as="sourcePoint" />
            <mxPoint x="690" y="380" as="targetPoint" />
          </mxGeometry>
        </mxCell>
        <mxCell id="uGrmN0lt_vAjJPZEbHZI-102" value="" style="edgeStyle=entityRelationEdgeStyle;fontSize=12;html=1;endArrow=ERzeroToMany;startArrow=ERmandOne;exitX=1.02;exitY=0.136;exitDx=0;exitDy=0;exitPerimeter=0;" edge="1" parent="1" source="uGrmN0lt_vAjJPZEbHZI-61" target="uGrmN0lt_vAjJPZEbHZI-78">
          <mxGeometry width="100" height="100" relative="1" as="geometry">
            <mxPoint x="710" y="400" as="sourcePoint" />
            <mxPoint x="810" y="300" as="targetPoint" />
          </mxGeometry>
        </mxCell>
        <mxCell id="uGrmN0lt_vAjJPZEbHZI-103" value="" style="edgeStyle=entityRelationEdgeStyle;fontSize=12;html=1;endArrow=ERoneToMany;startArrow=ERmandOne;entryX=1;entryY=0.25;entryDx=0;entryDy=0;exitX=0.002;exitY=0.068;exitDx=0;exitDy=0;exitPerimeter=0;" edge="1" parent="1" source="uGrmN0lt_vAjJPZEbHZI-45" target="uGrmN0lt_vAjJPZEbHZI-106">
          <mxGeometry width="100" height="100" relative="1" as="geometry">
            <mxPoint x="490" y="1000" as="sourcePoint" />
            <mxPoint x="380.3600000000001" y="922.6700000000003" as="targetPoint" />
          </mxGeometry>
        </mxCell>
        <mxCell id="uGrmN0lt_vAjJPZEbHZI-104" value="" style="edgeStyle=entityRelationEdgeStyle;fontSize=12;html=1;endArrow=ERzeroToMany;startArrow=ERmandOne;entryX=1.002;entryY=0.109;entryDx=0;entryDy=0;entryPerimeter=0;" edge="1" parent="1" source="uGrmN0lt_vAjJPZEbHZI-21" target="uGrmN0lt_vAjJPZEbHZI-106">
          <mxGeometry width="100" height="100" relative="1" as="geometry">
            <mxPoint x="100" y="533" as="sourcePoint" />
            <mxPoint x="380.3600000000001" y="853.3699999999999" as="targetPoint" />
          </mxGeometry>
        </mxCell>
        <mxCell id="uGrmN0lt_vAjJPZEbHZI-105" value="" style="edgeStyle=entityRelationEdgeStyle;fontSize=12;html=1;endArrow=ERzeroToMany;startArrow=ERmandOne;exitX=1;exitY=0.75;exitDx=0;exitDy=0;" edge="1" parent="1" source="uGrmN0lt_vAjJPZEbHZI-21">
          <mxGeometry width="100" height="100" relative="1" as="geometry">
            <mxPoint x="410" y="542.5" as="sourcePoint" />
            <mxPoint x="910" y="635" as="targetPoint" />
          </mxGeometry>
        </mxCell>
        <mxCell id="uGrmN0lt_vAjJPZEbHZI-106" value="Order_line" style="shape=table;startSize=30;container=1;collapsible=1;childLayout=tableLayout;fixedRows=1;rowLines=0;fontStyle=1;align=center;resizeLast=1;" vertex="1" parent="1">
          <mxGeometry x="200" y="810" width="180" height="160" as="geometry" />
        </mxCell>
        <mxCell id="uGrmN0lt_vAjJPZEbHZI-107" value="" style="shape=partialRectangle;collapsible=0;dropTarget=0;pointerEvents=0;fillColor=none;top=0;left=0;bottom=1;right=0;points=[[0,0.5],[1,0.5]];portConstraint=eastwest;" vertex="1" parent="uGrmN0lt_vAjJPZEbHZI-106">
          <mxGeometry y="30" width="180" height="30" as="geometry" />
        </mxCell>
        <mxCell id="uGrmN0lt_vAjJPZEbHZI-108" value="PK" style="shape=partialRectangle;connectable=0;fillColor=none;top=0;left=0;bottom=0;right=0;fontStyle=1;overflow=hidden;" vertex="1" parent="uGrmN0lt_vAjJPZEbHZI-107">
          <mxGeometry width="30" height="30" as="geometry" />
        </mxCell>
        <mxCell id="uGrmN0lt_vAjJPZEbHZI-109" value="id int NotNull" style="shape=partialRectangle;connectable=0;fillColor=none;top=0;left=0;bottom=0;right=0;align=left;spacingLeft=6;fontStyle=5;overflow=hidden;" vertex="1" parent="uGrmN0lt_vAjJPZEbHZI-107">
          <mxGeometry x="30" width="150" height="30" as="geometry" />
        </mxCell>
        <mxCell id="uGrmN0lt_vAjJPZEbHZI-110" value="" style="shape=partialRectangle;collapsible=0;dropTarget=0;pointerEvents=0;fillColor=none;top=0;left=0;bottom=0;right=0;points=[[0,0.5],[1,0.5]];portConstraint=eastwest;" vertex="1" parent="uGrmN0lt_vAjJPZEbHZI-106">
          <mxGeometry y="60" width="180" height="30" as="geometry" />
        </mxCell>
        <mxCell id="uGrmN0lt_vAjJPZEbHZI-111" value="" style="shape=partialRectangle;connectable=0;fillColor=none;top=0;left=0;bottom=0;right=0;editable=1;overflow=hidden;" vertex="1" parent="uGrmN0lt_vAjJPZEbHZI-110">
          <mxGeometry width="30" height="30" as="geometry" />
        </mxCell>
        <mxCell id="uGrmN0lt_vAjJPZEbHZI-112" value="order_id int (FK)" style="shape=partialRectangle;connectable=0;fillColor=none;top=0;left=0;bottom=0;right=0;align=left;spacingLeft=6;overflow=hidden;" vertex="1" parent="uGrmN0lt_vAjJPZEbHZI-110">
          <mxGeometry x="30" width="150" height="30" as="geometry" />
        </mxCell>
        <mxCell id="uGrmN0lt_vAjJPZEbHZI-113" value="" style="shape=partialRectangle;collapsible=0;dropTarget=0;pointerEvents=0;fillColor=none;top=0;left=0;bottom=0;right=0;points=[[0,0.5],[1,0.5]];portConstraint=eastwest;" vertex="1" parent="uGrmN0lt_vAjJPZEbHZI-106">
          <mxGeometry y="90" width="180" height="30" as="geometry" />
        </mxCell>
        <mxCell id="uGrmN0lt_vAjJPZEbHZI-114" value="" style="shape=partialRectangle;connectable=0;fillColor=none;top=0;left=0;bottom=0;right=0;editable=1;overflow=hidden;" vertex="1" parent="uGrmN0lt_vAjJPZEbHZI-113">
          <mxGeometry width="30" height="30" as="geometry" />
        </mxCell>
        <mxCell id="uGrmN0lt_vAjJPZEbHZI-115" value="product_id int (FK)" style="shape=partialRectangle;connectable=0;fillColor=none;top=0;left=0;bottom=0;right=0;align=left;spacingLeft=6;overflow=hidden;" vertex="1" parent="uGrmN0lt_vAjJPZEbHZI-113">
          <mxGeometry x="30" width="150" height="30" as="geometry" />
        </mxCell>
        <mxCell id="uGrmN0lt_vAjJPZEbHZI-116" value="" style="shape=partialRectangle;collapsible=0;dropTarget=0;pointerEvents=0;fillColor=none;top=0;left=0;bottom=0;right=0;points=[[0,0.5],[1,0.5]];portConstraint=eastwest;" vertex="1" parent="uGrmN0lt_vAjJPZEbHZI-106">
          <mxGeometry y="120" width="180" height="30" as="geometry" />
        </mxCell>
        <mxCell id="uGrmN0lt_vAjJPZEbHZI-117" value="" style="shape=partialRectangle;connectable=0;fillColor=none;top=0;left=0;bottom=0;right=0;editable=1;overflow=hidden;" vertex="1" parent="uGrmN0lt_vAjJPZEbHZI-116">
          <mxGeometry width="30" height="30" as="geometry" />
        </mxCell>
        <mxCell id="uGrmN0lt_vAjJPZEbHZI-118" value="quantity int" style="shape=partialRectangle;connectable=0;fillColor=none;top=0;left=0;bottom=0;right=0;align=left;spacingLeft=6;overflow=hidden;" vertex="1" parent="uGrmN0lt_vAjJPZEbHZI-116">
          <mxGeometry x="30" width="150" height="30" as="geometry" />
        </mxCell>
        <mxCell id="uGrmN0lt_vAjJPZEbHZI-119" value="" style="shape=partialRectangle;collapsible=0;dropTarget=0;pointerEvents=0;fillColor=none;top=0;left=0;bottom=0;right=0;points=[[0,0.5],[1,0.5]];portConstraint=eastwest;" vertex="1" parent="1">
          <mxGeometry x="140" y="545" width="200" height="30" as="geometry" />
        </mxCell>
        <mxCell id="uGrmN0lt_vAjJPZEbHZI-120" value="" style="shape=partialRectangle;connectable=0;fillColor=none;top=0;left=0;bottom=0;right=0;editable=1;overflow=hidden;" vertex="1" parent="uGrmN0lt_vAjJPZEbHZI-119">
          <mxGeometry width="30" height="30" as="geometry" />
        </mxCell>
        <mxCell id="uGrmN0lt_vAjJPZEbHZI-121" value="picture_URL Text" style="shape=partialRectangle;connectable=0;fillColor=none;top=0;left=0;bottom=0;right=0;align=left;spacingLeft=6;overflow=hidden;" vertex="1" parent="uGrmN0lt_vAjJPZEbHZI-119">
          <mxGeometry x="30" width="170" height="30" as="geometry" />
        </mxCell>
        <mxCell id="uGrmN0lt_vAjJPZEbHZI-122" value="updateAt DateTime" style="shape=partialRectangle;connectable=0;fillColor=none;top=0;left=0;bottom=0;right=0;align=left;spacingLeft=6;overflow=hidden;" vertex="1" parent="1">
          <mxGeometry x="175" y="690" width="150" height="30" as="geometry" />
        </mxCell>
        <mxCell id="uGrmN0lt_vAjJPZEbHZI-123" value="description Text" style="shape=partialRectangle;connectable=0;fillColor=none;top=0;left=0;bottom=0;right=0;align=left;spacingLeft=6;overflow=hidden;" vertex="1" parent="1">
          <mxGeometry x="170" y="575" width="170" height="30" as="geometry" />
        </mxCell>
        <mxCell id="uGrmN0lt_vAjJPZEbHZI-124" value="" style="shape=partialRectangle;collapsible=0;dropTarget=0;pointerEvents=0;fillColor=none;top=0;left=0;bottom=0;right=0;points=[[0,0.5],[1,0.5]];portConstraint=eastwest;" vertex="1" parent="1">
          <mxGeometry x="140" y="605" width="200" height="30" as="geometry" />
        </mxCell>
        <mxCell id="uGrmN0lt_vAjJPZEbHZI-125" value="" style="shape=partialRectangle;connectable=0;fillColor=none;top=0;left=0;bottom=0;right=0;editable=1;overflow=hidden;" vertex="1" parent="uGrmN0lt_vAjJPZEbHZI-124">
          <mxGeometry width="30" height="30" as="geometry" />
        </mxCell>
        <mxCell id="uGrmN0lt_vAjJPZEbHZI-126" value="status varchar (20)" style="shape=partialRectangle;connectable=0;fillColor=none;top=0;left=0;bottom=0;right=0;align=left;spacingLeft=6;overflow=hidden;" vertex="1" parent="uGrmN0lt_vAjJPZEbHZI-124">
          <mxGeometry x="30" width="170" height="30" as="geometry" />
        </mxCell>
        <mxCell id="uGrmN0lt_vAjJPZEbHZI-127" value="" style="shape=partialRectangle;collapsible=0;dropTarget=0;pointerEvents=0;fillColor=none;top=0;left=0;bottom=0;right=0;points=[[0,0.5],[1,0.5]];portConstraint=eastwest;" vertex="1" parent="1">
          <mxGeometry x="140" y="630" width="200" height="30" as="geometry" />
        </mxCell>
        <mxCell id="uGrmN0lt_vAjJPZEbHZI-128" value="" style="shape=partialRectangle;connectable=0;fillColor=none;top=0;left=0;bottom=0;right=0;editable=1;overflow=hidden;" vertex="1" parent="uGrmN0lt_vAjJPZEbHZI-127">
          <mxGeometry width="30" height="30" as="geometry" />
        </mxCell>
        <mxCell id="uGrmN0lt_vAjJPZEbHZI-129" value="sale int (3)" style="shape=partialRectangle;connectable=0;fillColor=none;top=0;left=0;bottom=0;right=0;align=left;spacingLeft=6;overflow=hidden;" vertex="1" parent="uGrmN0lt_vAjJPZEbHZI-127">
          <mxGeometry x="30" width="170" height="30" as="geometry" />
        </mxCell>
        <mxCell id="uGrmN0lt_vAjJPZEbHZI-130" value="" style="shape=partialRectangle;collapsible=0;dropTarget=0;pointerEvents=0;fillColor=none;top=0;left=0;bottom=0;right=0;points=[[0,0.5],[1,0.5]];portConstraint=eastwest;" vertex="1" parent="1">
          <mxGeometry x="570" y="1040" width="180" height="30" as="geometry" />
        </mxCell>
        <mxCell id="uGrmN0lt_vAjJPZEbHZI-131" value="" style="shape=partialRectangle;connectable=0;fillColor=none;top=0;left=0;bottom=0;right=0;editable=1;overflow=hidden;" vertex="1" parent="uGrmN0lt_vAjJPZEbHZI-130">
          <mxGeometry width="30" height="30" as="geometry" />
        </mxCell>
        <mxCell id="uGrmN0lt_vAjJPZEbHZI-132" value="content Text" style="shape=partialRectangle;connectable=0;fillColor=none;top=0;left=0;bottom=0;right=0;align=left;spacingLeft=6;overflow=hidden;" vertex="1" parent="uGrmN0lt_vAjJPZEbHZI-130">
          <mxGeometry x="30" width="150" height="30" as="geometry" />
        </mxCell>
      </root>
    </mxGraphModel>
  </diagram>
</mxfile>
